# Blender v2.78 (sub 0) OBJ File: 'Circle.blend'
# www.blender.org
mtllib Circle.mtl
o Circle
v 0.000000 0.000000 -1.000000
v -0.125333 0.000000 -0.992115
v -0.248690 0.000000 -0.968583
v -0.368125 0.000000 -0.929776
v -0.481754 0.000000 -0.876307
v -0.587785 0.000000 -0.809017
v -0.684547 0.000000 -0.728969
v -0.770513 0.000000 -0.637424
v -0.844328 0.000000 -0.535827
v -0.904827 0.000000 -0.425779
v -0.951057 0.000000 -0.309017
v -0.982287 0.000000 -0.187381
v -0.998027 0.000000 -0.062790
v -0.998027 0.000000 0.062791
v -0.982287 0.000000 0.187382
v -0.951056 0.000000 0.309017
v -0.904827 0.000000 0.425780
v -0.844328 0.000000 0.535827
v -0.770513 0.000000 0.637424
v -0.684547 0.000000 0.728969
v -0.587785 0.000000 0.809017
v -0.481753 0.000000 0.876307
v -0.368124 0.000000 0.929777
v -0.248689 0.000000 0.968583
v -0.125332 0.000000 0.992115
v 0.000001 0.000000 1.000000
v 0.125334 0.000000 0.992115
v 0.248691 0.000000 0.968583
v 0.368125 0.000000 0.929776
v 0.481755 0.000000 0.876306
v 0.587786 0.000000 0.809016
v 0.684548 0.000000 0.728968
v 0.770514 0.000000 0.637423
v 0.844329 0.000000 0.535826
v 0.904828 0.000000 0.425778
v 0.951057 0.000000 0.309016
v 0.982288 0.000000 0.187380
v 0.998027 0.000000 0.062789
v 0.998027 0.000000 -0.062792
v 0.982287 0.000000 -0.187383
v 0.951056 0.000000 -0.309018
v 0.904826 0.000000 -0.425781
v 0.844327 0.000000 -0.535828
v 0.770512 0.000000 -0.637425
v 0.684546 0.000000 -0.728970
v 0.587784 0.000000 -0.809018
v 0.481752 0.000000 -0.876308
v 0.368123 0.000000 -0.929777
v 0.248688 0.000000 -0.968584
v 0.125331 0.000000 -0.992115
vt 0.4372 0.9961
vt 0.3754 0.9843
vt 0.3156 0.9649
vt 0.2586 0.9382
vt 0.2055 0.9045
vt 0.1570 0.8645
vt 0.1140 0.8187
vt 0.0770 0.7679
vt 0.0467 0.7129
vt 0.0235 0.6545
vt 0.0079 0.5937
vt 0.0000 0.5314
vt 0.0000 0.4686
vt 0.0079 0.4063
vt 0.0235 0.3455
vt 0.0467 0.2871
vt 0.0770 0.2321
vt 0.1140 0.1813
vt 0.1570 0.1355
vt 0.2055 0.0955
vt 0.2586 0.0618
vt 0.3156 0.0351
vt 0.3754 0.0157
vt 0.4372 0.0039
vt 0.5000 0.0000
vt 0.5628 0.0039
vt 0.6246 0.0157
vt 0.6844 0.0351
vt 0.7414 0.0618
vt 0.7945 0.0955
vt 0.8430 0.1355
vt 0.8860 0.1813
vt 0.9230 0.2321
vt 0.9533 0.2871
vt 0.9765 0.3455
vt 0.9921 0.4063
vt 1.0000 0.4686
vt 1.0000 0.5314
vt 0.9921 0.5937
vt 0.9765 0.6545
vt 0.9533 0.7129
vt 0.9230 0.7679
vt 0.8860 0.8187
vt 0.8429 0.8645
vt 0.7945 0.9045
vt 0.7414 0.9382
vt 0.6844 0.9649
vt 0.6246 0.9843
vt 0.5628 0.9961
vt 0.5000 1.0000
vn 0.0000 1.0000 0.0000
usemtl None
s off
f 2/1/1 3/2/1 4/3/1 5/4/1 6/5/1 7/6/1 8/7/1 9/8/1 10/9/1 11/10/1 12/11/1 13/12/1 14/13/1 15/14/1 16/15/1 17/16/1 18/17/1 19/18/1 20/19/1 21/20/1 22/21/1 23/22/1 24/23/1 25/24/1 26/25/1 27/26/1 28/27/1 29/28/1 30/29/1 31/30/1 32/31/1 33/32/1 34/33/1 35/34/1 36/35/1 37/36/1 38/37/1 39/38/1 40/39/1 41/40/1 42/41/1 43/42/1 44/43/1 45/44/1 46/45/1 47/46/1 48/47/1 49/48/1 50/49/1 1/50/1
